<?xml version="1.0" encoding="UTF-8"?>
<!DOCTYPE svg PUBLIC "-//W3C//DTD SVG 1.1//EN" "http://www.w3.org/Graphics/SVG/1.1/DTD/svg11.dtd">
<!-- Creator: CorelDRAW (Versão de avaliação) -->
<svg xmlns="http://www.w3.org/2000/svg" xml:space="preserve" width="87.63mm" height="29.21mm" version="1.1" style="shape-rendering:geometricPrecision; text-rendering:geometricPrecision; image-rendering:optimizeQuality; fill-rule:evenodd; clip-rule:evenodd"
viewBox="0 0 8763 2921"
 xmlns:xlink="http://www.w3.org/1999/xlink"
 xmlns:xodm="http://www.corel.com/coreldraw/odm/2003">
 <defs>
  <style type="text/css">
   <![CDATA[
    .fil0 {fill:#012A4A}
    .fil2 {fill:#013A63}
    .fil3 {fill:#012A4A;fill-rule:nonzero}
    .fil1 {fill:url(#id0)}
   ]]>
  </style>
  <linearGradient id="id0" gradientUnits="userSpaceOnUse" x1="-1989.04" y1="1944.23" x2="-1989.04" y2="2161.92">
   <stop offset="0" style="stop-opacity:1; stop-color:#012A4A"/>
   <stop offset="1" style="stop-opacity:1; stop-color:#012A4A"/>
  </linearGradient>
 </defs>
 <g id="Camada_x0020_1">
  <metadata id="CorelCorpID_0Corel-Layer"/>
  <g id="_453715928">
   <path class="fil0" d="M1974.28 411.8c-103.75,453.35 -671.45,1124.7 -311.32,1418.98 146.93,120.07 568.78,556.33 501.77,378.79l-114.49 -303.31 778.45 -818.17c-279.91,-246.8 -771.18,-1040 -854.41,-676.29z"/>
   <path class="fil1" d="M2793.21 2698.25c-176.3,172.21 1047.43,322.12 1000.59,80.12 -53.14,-274.55 636.1,-1678.84 -191.91,-870.04l-808.68 789.92z"/>
   <path class="fil2" d="M455.77 940.45c-167.3,193.72 -583.98,943.47 -387.05,723.68 91.01,-101.59 532.22,-598.83 553.86,-601.65 120.76,-15.72 1023,1756.62 1867.81,1796.7 781.45,37.07 648.55,-494.72 1130.49,-892.52 255.75,-211.11 -162.04,1060.07 143.07,888.79 922.29,-517.77 2213.22,-2985.09 1349.98,-2217.1l-1108.98 986.62c-291.58,259.4 -224.94,-1513.38 -371.16,-1606.06 -178.95,-113.41 -1955.87,1196.16 -1738.89,1791.77 33.09,90.85 176.23,345.71 99.29,272.56 -417.08,-396.54 -694.99,-1041.94 -1246.81,-1205.29 -71.57,-21.19 -218.16,-22.55 -291.61,62.5z"/>
  </g>
  <path class="fil3" d="M6000.78 1387.59l0 497.42 -138.05 0 0 -274.35 -93.96 274.35 -115.71 0 -94.55 -276.7 0 276.7 -138.41 0 0 -497.42 167.34 0 124.88 323.15 122.07 -323.15 166.39 0zm457.32 294.81c0,10.93 -0.7,21.87 -2,32.57l-261.88 0c1.41,21.64 7.41,37.75 17.88,48.45 10.7,10.58 24.34,15.87 40.68,15.87 23.17,0 39.63,-10.46 49.51,-31.28l147.34 0c-6.23,27.4 -18.1,51.74 -35.74,73.26 -17.52,21.29 -39.75,38.1 -66.68,50.45 -26.69,12.11 -56.33,18.23 -88.78,18.23 -39.04,0 -73.73,-8.23 -104.19,-24.58 -30.22,-16.58 -53.97,-40.1 -71.26,-70.67 -17.05,-30.69 -25.64,-66.68 -25.64,-107.95 0,-41.28 8.47,-77.14 25.29,-107.48 17.05,-30.46 40.68,-53.86 70.9,-70.32 30.46,-16.58 65.5,-24.82 104.9,-24.82 39.16,0 73.73,8 103.72,24.11 30.1,15.99 53.62,38.92 70.43,68.79 17.05,29.87 25.52,65.03 25.52,105.37zm-140.99 -34.46c0,-16.93 -5.65,-30.22 -17.05,-39.86 -11.29,-9.76 -25.4,-14.58 -42.22,-14.58 -17.05,0 -30.93,4.58 -41.75,13.87 -10.81,9.17 -17.87,22.7 -21.16,40.57l122.18 0zm174.85 38.81c0,-40.92 7.41,-76.67 22.23,-107.13 14.7,-30.69 35.04,-54.21 60.91,-70.67 25.99,-16.58 54.68,-24.82 86.08,-24.82 25.52,0 48.33,5.41 68.32,16.11 19.88,10.47 35.52,24.93 46.8,43.4l0 -180.74 139 0 0 522.11 -139 0 0 -54.92c-10.81,18.23 -26.1,32.81 -45.86,43.75 -19.75,10.7 -43.04,16.11 -69.85,16.11 -31.51,0 -60.09,-8.23 -85.84,-24.58 -25.64,-16.58 -45.86,-40.22 -60.56,-71.02 -14.82,-30.93 -22.23,-66.8 -22.23,-107.6zm285.05 0c0,-25.4 -6.94,-45.39 -20.81,-59.97 -14,-14.59 -31.05,-21.88 -51.16,-21.88 -20.69,0 -37.86,7.18 -51.5,21.52 -13.53,14.35 -20.35,34.46 -20.35,60.33 0,25.4 6.82,45.51 20.35,60.32 13.64,14.82 30.81,22.23 51.5,22.23 20.11,0 37.16,-7.29 51.16,-21.87 13.87,-14.59 20.81,-34.81 20.81,-60.68zm200.38 -51.51c0,-48.92 10.23,-92.54 30.69,-130.88 20.34,-38.45 49.39,-68.32 87.14,-89.61 37.63,-21.28 80.9,-31.98 129.82,-31.98 61.97,0 114.18,16.58 156.63,49.74 42.34,33.04 69.62,78.08 81.85,135l-148.87 0c-8.94,-18.82 -21.29,-33.16 -37.05,-43.04 -15.75,-9.88 -33.98,-14.82 -54.79,-14.82 -31.87,0 -57.39,11.41 -76.44,34.34 -19.05,22.69 -28.58,53.15 -28.58,91.25 0,38.57 9.53,69.26 28.58,92.19 19.05,22.7 44.57,34.11 76.44,34.11 20.81,0 39.04,-4.94 54.79,-14.82 15.76,-9.88 28.11,-24.22 37.05,-43.04l148.87 0c-12.23,56.92 -39.51,101.95 -81.85,135.12 -42.45,33.04 -94.66,49.62 -156.63,49.62 -48.92,0 -92.19,-10.7 -129.82,-31.99 -37.75,-21.4 -66.8,-51.27 -87.14,-89.6 -20.46,-38.34 -30.69,-82.2 -30.69,-131.59zm529.16 51.51c0,-40.92 7.41,-76.67 22.23,-107.13 14.7,-30.69 34.92,-54.21 60.56,-70.67 25.75,-16.58 54.33,-24.82 85.84,-24.82 27.28,0 50.8,5.41 70.56,16.35 19.75,10.82 35.04,25.4 45.86,43.86l0 -55.15 138.29 0 0 395.82 -138.29 0 0 -54.92c-10.82,18.23 -26.22,32.81 -46.21,43.75 -20,10.7 -43.4,16.11 -70.21,16.11 -31.51,0 -60.09,-8.23 -85.84,-24.58 -25.64,-16.58 -45.86,-40.22 -60.56,-71.02 -14.82,-30.93 -22.23,-66.8 -22.23,-107.6zm285.05 0c0,-25.4 -6.94,-45.39 -20.81,-59.97 -14,-14.59 -31.05,-21.88 -51.16,-21.88 -20.69,0 -37.86,7.18 -51.5,21.52 -13.53,14.35 -20.35,34.46 -20.35,60.33 0,25.4 6.82,45.51 20.35,60.32 13.64,14.82 30.81,22.23 51.5,22.23 20.11,0 37.16,-7.29 51.16,-21.87 13.87,-14.59 20.81,-34.81 20.81,-60.68zm355.6 -127.59c15.41,-22.7 34.22,-40.57 56.33,-53.62 22.11,-13.29 45.98,-19.88 71.5,-19.88l0 147.47 -38.93 0c-30.1,0 -52.44,5.87 -67.03,17.75 -14.58,11.76 -21.87,32.1 -21.87,61.15l0 172.98 -138.41 0 0 -395.82 138.41 0 0 69.97zm555.28 123.24c0,10.93 -0.7,21.87 -2,32.57l-261.88 0c1.41,21.64 7.41,37.75 17.88,48.45 10.7,10.58 24.34,15.87 40.68,15.87 23.17,0 39.63,-10.46 49.51,-31.28l147.34 0c-6.23,27.4 -18.1,51.74 -35.74,73.26 -17.52,21.29 -39.75,38.1 -66.68,50.45 -26.69,12.11 -56.33,18.23 -88.78,18.23 -39.04,0 -73.73,-8.23 -104.19,-24.58 -30.22,-16.58 -53.97,-40.1 -71.26,-70.67 -17.05,-30.69 -25.64,-66.68 -25.64,-107.95 0,-41.28 8.47,-77.14 25.29,-107.48 17.05,-30.46 40.68,-53.86 70.9,-70.32 30.46,-16.58 65.5,-24.82 104.9,-24.82 39.16,0 73.73,8 103.72,24.11 30.1,15.99 53.62,38.92 70.43,68.79 17.05,29.87 25.52,65.03 25.52,105.37zm-140.99 -34.46c0,-16.93 -5.65,-30.22 -17.05,-39.86 -11.29,-9.76 -25.4,-14.58 -42.22,-14.58 -17.05,0 -30.93,4.58 -41.75,13.87 -10.81,9.17 -17.87,22.7 -21.16,40.57l122.18 0z"/>
 </g>
</svg>
