<?xml version="1.0" encoding="UTF-8"?>
<!DOCTYPE svg PUBLIC "-//W3C//DTD SVG 1.1//EN" "http://www.w3.org/Graphics/SVG/1.1/DTD/svg11.dtd">
<!-- Creator: CorelDRAW (Versão de avaliação) -->
<svg xmlns="http://www.w3.org/2000/svg" xml:space="preserve" width="87.63mm" height="29.21mm" version="1.1" style="shape-rendering:geometricPrecision; text-rendering:geometricPrecision; image-rendering:optimizeQuality; fill-rule:evenodd; clip-rule:evenodd"
viewBox="0 0 8763 2921"
 xmlns:xlink="http://www.w3.org/1999/xlink"
 xmlns:xodm="http://www.corel.com/coreldraw/odm/2003">
 <defs>
  <style type="text/css">
   <![CDATA[
    .fil0 {fill:#012A4A;fill-rule:nonzero}
   ]]>
  </style>
 </defs>
 <g id="Camada_x0020_1">
  <metadata id="CorelCorpID_0Corel-Layer"/>
  <path class="fil0" d="M1597.32 601.27l0 1312.26 -364.2 0 0 -723.78 -247.87 723.78 -305.26 0 -249.44 -729.97 0 729.97 -365.14 0 0 -1312.26 441.46 0 329.45 852.51 322.04 -852.51 438.96 0zm1206.47 777.74c0,28.84 -1.85,57.7 -5.28,85.93l-690.87 0c3.72,57.09 19.55,99.59 47.17,127.82 28.23,27.91 64.21,41.86 107.32,41.86 61.12,0 104.55,-27.59 130.61,-82.52l388.7 0c-16.43,72.29 -47.75,136.5 -94.28,193.27 -46.22,56.17 -104.87,100.51 -175.91,133.09 -70.42,31.95 -148.61,48.1 -234.22,48.1 -102.99,0 -194.51,-21.71 -274.86,-64.85 -79.73,-43.74 -142.38,-105.79 -188,-186.43 -44.98,-80.97 -67.64,-175.91 -67.64,-284.79 0,-108.9 22.35,-203.51 66.72,-283.55 44.98,-80.35 107.32,-142.09 187.04,-185.51 80.36,-43.74 172.8,-65.48 276.74,-65.48 103.31,0 194.51,21.11 273.63,63.61 79.41,42.18 141.46,102.67 185.8,181.47 44.98,78.81 67.33,171.56 67.33,277.98zm-371.95 -90.91c0,-44.66 -14.91,-79.72 -44.98,-105.15 -29.79,-25.75 -67.01,-38.47 -111.38,-38.47 -44.98,0 -81.6,12.09 -110.15,36.6 -28.51,24.19 -47.14,59.88 -55.82,107.02l322.33 0zm461.27 102.39c0,-107.95 19.55,-202.27 58.65,-282.62 38.78,-80.97 92.44,-143.02 160.69,-186.44 68.56,-43.74 144.25,-65.48 227.09,-65.48 67.32,0 127.5,14.27 180.24,42.5 52.44,27.62 93.7,65.77 123.46,114.5l0 -476.82 366.7 0 0 1377.4 -366.7 0 0 -144.89c-28.52,48.09 -68.86,86.56 -120.98,115.42 -52.11,28.23 -113.55,42.5 -184.28,42.5 -83.13,0 -158.52,-21.71 -226.46,-64.85 -67.64,-43.74 -120.98,-106.1 -159.76,-187.36 -39.1,-81.59 -58.65,-176.22 -58.65,-283.86zm752 0c0,-67.01 -18.31,-119.74 -54.9,-158.21 -36.93,-38.49 -81.91,-57.72 -134.96,-57.72 -54.59,0 -99.88,18.94 -135.87,56.77 -35.69,37.86 -53.68,90.91 -53.68,159.16 0,67.01 17.99,120.06 53.68,159.13 35.99,39.1 81.28,58.65 135.87,58.65 53.05,0 98.03,-19.23 134.96,-57.7 36.59,-38.49 54.9,-91.83 54.9,-160.08zm528.63 -135.89c0,-129.06 26.99,-244.13 80.97,-345.28 53.65,-101.43 130.29,-180.24 229.88,-236.4 99.27,-56.14 213.43,-84.37 342.48,-84.37 163.49,0 301.23,43.74 413.21,131.22 111.7,87.17 183.67,205.99 215.93,356.15l-392.73 0c-23.59,-49.65 -56.17,-87.48 -97.75,-113.55 -41.55,-26.06 -89.64,-39.09 -144.54,-39.09 -84.08,0 -151.4,30.1 -201.66,90.59 -50.25,59.86 -75.4,140.22 -75.4,240.73 0,101.75 25.15,182.72 75.4,243.21 50.26,59.88 117.58,89.99 201.66,89.99 54.9,0 102.99,-13.04 144.54,-39.1 41.58,-26.07 74.16,-63.9 97.75,-113.55l392.73 0c-32.26,150.17 -104.23,268.96 -215.93,356.47 -111.98,87.16 -249.72,130.9 -413.21,130.9 -129.05,0 -243.21,-28.23 -342.48,-84.39 -99.59,-56.46 -176.23,-135.26 -229.88,-236.38 -53.98,-101.14 -80.97,-216.85 -80.97,-347.15zm1395.99 135.89c0,-107.95 19.55,-202.27 58.65,-282.62 38.78,-80.97 92.12,-143.02 159.76,-186.44 67.94,-43.74 143.33,-65.48 226.46,-65.48 71.97,0 134.02,14.27 186.15,43.14 52.1,28.54 92.44,67 120.98,115.7l0 -145.49 364.83 0 0 1044.23 -364.83 0 0 -144.89c-28.54,48.09 -69.17,86.56 -121.91,115.42 -52.76,28.23 -114.49,42.5 -185.22,42.5 -83.13,0 -158.52,-21.71 -226.46,-64.85 -67.64,-43.74 -120.98,-106.1 -159.76,-187.36 -39.1,-81.59 -58.65,-176.22 -58.65,-283.86zm752 0c0,-67.01 -18.31,-119.74 -54.9,-158.21 -36.93,-38.49 -81.91,-57.72 -134.96,-57.72 -54.59,0 -99.88,18.94 -135.87,56.77 -35.69,37.86 -53.68,90.91 -53.68,159.16 0,67.01 17.99,120.06 53.68,159.13 35.99,39.1 81.28,58.65 135.87,58.65 53.05,0 98.03,-19.23 134.96,-57.7 36.59,-38.49 54.9,-91.83 54.9,-160.08zm938.12 -336.6c40.65,-59.88 90.28,-107.03 148.61,-141.46 58.32,-35.06 121.3,-52.44 188.62,-52.44l0 389.04 -102.7 0c-79.41,0 -138.34,15.49 -176.83,46.83 -38.47,31.02 -57.7,84.68 -57.7,161.32l0 456.35 -365.14 0 0 -1044.23 365.14 0 0 184.59zm1464.9 325.12c0,28.84 -1.85,57.7 -5.28,85.93l-690.87 0c3.72,57.09 19.55,99.59 47.17,127.82 28.23,27.91 64.21,41.86 107.32,41.86 61.12,0 104.55,-27.59 130.61,-82.52l388.71 0c-16.44,72.29 -47.76,136.5 -94.29,193.27 -46.22,56.17 -104.87,100.51 -175.91,133.09 -70.41,31.95 -148.61,48.1 -234.22,48.1 -102.99,0 -194.5,-21.71 -274.86,-64.85 -79.73,-43.74 -142.38,-105.79 -187.99,-186.43 -44.98,-80.97 -67.65,-175.91 -67.65,-284.79 0,-108.9 22.35,-203.51 66.72,-283.55 44.98,-80.35 107.32,-142.09 187.05,-185.51 80.35,-43.74 172.79,-65.48 276.73,-65.48 103.31,0 194.51,21.11 273.63,63.61 79.41,42.18 141.46,102.67 185.8,181.47 44.99,78.81 67.33,171.56 67.33,277.98zm-371.95 -90.91c0,-44.66 -14.91,-79.72 -44.98,-105.15 -29.78,-25.75 -67.01,-38.47 -111.38,-38.47 -44.98,0 -81.6,12.09 -110.14,36.6 -28.52,24.19 -47.15,59.88 -55.83,107.02l322.33 0z"/>
 </g>
</svg>
