<?xml version="1.0" encoding="UTF-8"?>
<!DOCTYPE svg PUBLIC "-//W3C//DTD SVG 1.1//EN" "http://www.w3.org/Graphics/SVG/1.1/DTD/svg11.dtd">
<!-- Creator: CorelDRAW (Versão de avaliação) -->
<svg xmlns="http://www.w3.org/2000/svg" xml:space="preserve" width="66.1458mm" height="66.1458mm" version="1.1" style="shape-rendering:geometricPrecision; text-rendering:geometricPrecision; image-rendering:optimizeQuality; fill-rule:evenodd; clip-rule:evenodd"
viewBox="0 0 6614.58 6614.58"
 xmlns:xlink="http://www.w3.org/1999/xlink"
 xmlns:xodm="http://www.corel.com/coreldraw/odm/2003">
 <defs>
  <style type="text/css">
   <![CDATA[
    .fil0 {fill:#000B64}
    .fil1 {fill:#0F276A}
   ]]>
  </style>
 </defs>
 <g id="Camada_x0020_1">
  <metadata id="CorelCorpID_0Corel-Layer"/>
  <path class="fil0" d="M2533.45 2012.98c-103.75,453.35 -671.45,1124.7 -311.32,1418.98 146.93,120.07 568.78,556.33 501.77,378.79l-114.49 -303.31 778.45 -818.17c-279.91,-246.8 -771.18,-1040 -854.41,-676.29z"/>
  <path class="fil0" d="M3352.38 4299.43c-176.3,172.21 1047.43,322.12 1000.59,80.12 -53.14,-274.55 77.73,-1133.43 -191.91,-870.04l-808.68 789.92z"/>
  <path class="fil1" d="M1014.94 2541.63c-167.3,193.72 -583.98,943.47 -387.05,723.68 91.01,-101.59 392.33,-554.07 553.86,-601.65 199.3,-58.71 697.64,1796.86 1507.39,2041.05 598.35,180.43 1008.97,-739.06 1490.91,-1136.87 255.76,-211.11 -162.04,1060.07 143.07,888.79 922.29,-517.77 2213.22,-2985.09 1349.98,-2217.1l-1108.98 986.62c-291.58,259.4 -224.94,-1513.38 -371.16,-1606.06 -178.95,-113.41 -1955.87,1196.16 -1738.89,1791.77 33.09,90.85 176.23,345.71 99.29,272.56 -417.08,-396.54 -694.99,-1041.94 -1246.81,-1205.29 -71.57,-21.19 -218.16,-22.55 -291.61,62.5z"/>
 </g>
</svg>
